<svg xmlns="http://www.w3.org/2000/svg" viewBox="0 0 512 512" role="img" aria-labelledby="title">
  <title>Bakeneko Icon</title>
  <circle cx="256" cy="256" r="248" fill="#a11212" />
  <path
    d="M128 192c12.5-46.6 35.8-91.8 80-108.8-6.6 29.3-3.9 61.3 8.6 84.8 26.2-10.5 55.8-10.5 82 0 12.5-23.5 15.2-55.5 8.6-84.8 44.2 17 67.5 62.2 80 108.8 26.5 12.9 44 41.5 44 70.7 0 22.6-6.7 41.7-15.1 58.3l-41.1-11.1c4.8-13.5 7.6-28.4 7.6-42-7.1 12.2-16.6 23.6-28 33-8.4 7-17.9 12.4-28 16.4 0 0 25 30.7 25 72 0 43.8-32.3 79.7-97.5 79.7S160 434.8 160 391c0-41.3 25-72 25-72-10.1-4-19.6-9.4-28-16.4-11.4-9.4-20.9-20.8-28-33 0 13.6 2.8 28.5 7.6 42l-41.1 11.1C134.7 304.4 128 285.3 128 262.6c0-29.2 17.5-57.8 44-70.6Z"
    fill="#1a0303"
  />
  <path
    d="M208 360c0-32 21.5-56 48-56s48 24 48 56-21.5 64-48 64-48-32-48-64Z"
    fill="#f3d6d6"
  />
  <path
    d="M208 232c-17.7 0-32 17.9-32 40 20.9 8.4 47.2 8.4 68 0 0-22.1-14.3-40-32-40Zm96 0c-17.7 0-32 17.9-32 40 20.9 8.4 47.2 8.4 68 0 0-22.1-14.3-40-32-40Z"
    fill="#f3d6d6"
  />
  <path d="M208 240c-13.3 0-24 14.3-24 32 16 6.5 37 6.5 53 0 0-17.7-10.7-32-24-32Zm96 0c-13.3 0-24 14.3-24 32 16 6.5 37 6.5 53 0 0-17.7-10.7-32-24-32Z" fill="#1a0303" />
</svg>
