<svg xmlns="http://www.w3.org/2000/svg" viewBox="0 0 512 512" role="img" aria-labelledby="title">
  <title>Kitsune Icon</title>
  <circle cx="256" cy="256" r="248" fill="#c21a1a" />
  <path
    d="M256 112c-34.8 0-70.4 27.2-74 71.8-32.2-10.7-63.5 2.8-82 18.6 47.5 9 73.4 31.5 87.3 56.2-37 14.7-67.9 45.6-67.9 89.6 0 64 49.6 104.8 136.6 104.8s136.6-40.8 136.6-104.8c0-41.3-28.8-70.9-66.6-88.6 9.5-28 36-52.6 87.6-61-19.1-17.4-49-33.6-81.7-20.3-4.9-36.5-40.7-66.3-75.9-66.3Z"
    fill="#f8f5f2"
  />
  <path
    d="M214.8 232.5c3.4 36.9 55.1 60.5 44.7 104.5-5.8 23.9-33.6 39.7-60.7 32.1-25-6.9-40.3-30.6-37.3-58.8 2.7-25.6 21.8-53.2 53.3-77.8Zm82.4 0c-3.4 36.9-55.1 60.5-44.7 104.5 5.8 23.9 33.6 39.7 60.7 32.1 25-6.9 40.3-30.6 37.3-58.8-2.7-25.6-21.8-53.2-53.3-77.8Z"
    fill="#c21a1a"
    opacity="0.85"
  />
</svg>
