<svg xmlns="http://www.w3.org/2000/svg" viewBox="0 0 512 512" role="img" aria-labelledby="title">
  <title>Yang Symbol</title>
  <circle cx="256" cy="256" r="248" fill="#151515" />
  <path d="M256 40c-82.6 0-150 67.4-150 150 0 70.6 57.3 110.4 108.4 129.7C244.9 332.8 272 356.5 272 392c0 57.3-49.3 80-97.6 80 45.1 41.8 112.9 50.7 166.2 17.4C344 464.9 356 432 356 392c0-70.6-57.3-110.4-108.4-129.7C267.1 179.2 240 155.5 240 120c0-57.3 49.3-80 97.6-80C292.5 -1.8 224.7 7.1 171.4 40.4 168 87.1 144 120 144 160c0 40 24 72 112 72s112 32 112 72c0 37.2-20.4 68-90.6 72.7C320.2 363.8 406 320.6 406 206c0-82.6-67.4-150-150-150Z" fill="#fefefe" opacity="0.9" />
  <circle cx="256" cy="160" r="28" fill="#151515" />
  <circle cx="256" cy="352" r="20" fill="#fefefe" />
</svg>
