<svg xmlns="http://www.w3.org/2000/svg" viewBox="0 0 512 512" role="img" aria-labelledby="title">
  <title>Yin Symbol</title>
  <circle cx="256" cy="256" r="248" fill="#fefefe" />
  <path d="M256 40c82.6 0 150 67.4 150 150 0 70.6-57.3 110.4-108.4 129.7C267.1 332.8 240 356.5 240 392c0 57.3 49.3 80 97.6 80-45.1 41.8-112.9 50.7-166.2 17.4C168 464.9 156 432 156 392c0-70.6 57.3-110.4 108.4-129.7C244.9 179.2 272 155.5 272 120c0-57.3-49.3-80-97.6-80 45.1-41.8 112.9-50.7 166.2-17.4C344 87.1 356 120 356 160c0 40-24 72-112 72s-112 32-112 72c0 37.2 20.4 68 90.6 72.7C191.8 363.8 106 320.6 106 206c0-82.6 67.4-150 150-150Z" fill="#141414" opacity="0.9" />
  <circle cx="256" cy="160" r="28" fill="#fefefe" />
  <circle cx="256" cy="352" r="20" fill="#141414" />
</svg>
